<?xml version="1.0" encoding="UTF-8" standalone="no"?>
<svg
   xmlns:inkpad="http://taptrix.com/inkpad/svg_extensions"
   xmlns:dc="http://purl.org/dc/elements/1.1/"
   xmlns:cc="http://creativecommons.org/ns#"
   xmlns:rdf="http://www.w3.org/1999/02/22-rdf-syntax-ns#"
   xmlns:svg="http://www.w3.org/2000/svg"
   xmlns="http://www.w3.org/2000/svg"
   xmlns:xlink="http://www.w3.org/1999/xlink"
   xmlns:sodipodi="http://sodipodi.sourceforge.net/DTD/sodipodi-0.dtd"
   xmlns:inkscape="http://www.inkscape.org/namespaces/inkscape"
   version="1.1"
   viewBox="0 0 323.54263 187.71616"
   id="svg2"
   inkscape:version="0.91 r13725"
   sodipodi:docname="icon_web.svg"
   width="323.54263"
   height="187.71616">
  <metadata
     id="metadata25">
    <rdf:RDF>
      <cc:Work
         rdf:about="">
        <dc:format>image/svg+xml</dc:format>
        <dc:type
           rdf:resource="http://purl.org/dc/dcmitype/StillImage" />
        <dc:title></dc:title>
      </cc:Work>
    </rdf:RDF>
  </metadata>
  <sodipodi:namedview
     pagecolor="#ffffff"
     bordercolor="#666666"
     borderopacity="1"
     objecttolerance="10"
     gridtolerance="10"
     guidetolerance="10"
     inkscape:pageopacity="0"
     inkscape:pageshadow="2"
     inkscape:window-width="1644"
     inkscape:window-height="963"
     id="namedview23"
     showgrid="false"
     fit-margin-top="0"
     fit-margin-left="0"
     fit-margin-right="0"
     fit-margin-bottom="0"
     inkscape:zoom="0.944"
     inkscape:cx="-120.63227"
     inkscape:cy="100.31506"
     inkscape:window-x="1968"
     inkscape:window-y="51"
     inkscape:window-maximized="0"
     inkscape:current-layer="g11" />
  <defs
     id="defs4">
    <linearGradient
       id="a"
       x1="133.39"
       x2="427.81"
       y1="111.36"
       y2="375.51001"
       gradientUnits="userSpaceOnUse">
      <stop
         stop-color="#ffe8e8"
         offset="0"
         id="stop7"
         style="stop-color:#edd510;stop-opacity:1" />
      <stop
         stop-color="#d9d7b8"
         offset="0.26503342"
         id="stop9"
         style="stop-color:#dbc718;stop-opacity:1" />
    </linearGradient>
    <linearGradient
       inkscape:collect="always"
       xlink:href="#a"
       id="linearGradient4159"
       x1="78.301003"
       y1="241.645"
       x2="439.92099"
       y2="241.645"
       gradientUnits="userSpaceOnUse" />
  </defs>
  <g
     transform="matrix(0.88285,0,0,0.88285,-66.982685,-119.47821)"
     inkpad:layerName="Layer 1"
     id="g11">
    <path
       d="m 78.301,137.76 361.62,0 0,207.77 -361.62,0 0,-207.77 z"
       id="path13"
       style="fill:url(#linearGradient4159);fill-opacity:1"
       inkscape:connector-curvature="0" />
    <path
       d="m 78.301,345.53 178.68,-131.35 182.93,131.35"
       id="path15"
       inkscape:connector-curvature="0"
       style="fill:none;stroke:#c9c9c9;stroke-width:4.85519981;stroke-linecap:round;stroke-linejoin:round" />
    <path
       d="m 78.301,137.76 181.39,153.59 180.22,-153.59"
       id="path17"
       style="fill:#f9e82d;fill-opacity:1;stroke:#c9c9c9;stroke-width:4.85519981;stroke-linecap:round;stroke-linejoin:round"
       inkscape:connector-curvature="0" />
    <path
       d="m 78.298569,137.76 361.620001,0 0,207.77 -361.620001,0 0,-207.77 z"
       id="path19"
       inkscape:connector-curvature="0"
       style="fill:none;stroke:#cccccc;stroke-width:4.85519981;stroke-linecap:round;stroke-linejoin:round" />
    <g
       style="font-style:normal;font-weight:normal;font-size:19.82216644px;line-height:125%;font-family:sans-serif;letter-spacing:0px;word-spacing:0px;fill:#a10000;fill-opacity:1;stroke:none;stroke-width:1px;stroke-linecap:butt;stroke-linejoin:miter;stroke-opacity:1"
       id="text4161">
      <path
         d="m 138.59289,189.97101 31.4776,0 0,-6.50167 -31.4776,0 0,-18.47426 32.66693,0 0,-6.50167 -40.04078,0 0,57.80144 41.46797,0 0,-6.50168 -34.09412,0 0,-19.82216 z"
         style="font-style:normal;font-variant:normal;font-weight:normal;font-stretch:normal;font-size:79.28866577px;font-family:'Nimbus Sans L';-inkscape-font-specification:'Nimbus Sans L';text-align:center;text-anchor:middle;fill:#a10000;fill-opacity:1"
         id="path4203" />
      <path
         d="m 190.76235,158.49341 -7.37384,0 0,57.80144 35.91776,0 0,-6.50168 -28.54392,0 0,-51.29976 z"
         style="font-style:normal;font-variant:normal;font-weight:normal;font-stretch:normal;font-size:79.28866577px;font-family:'Nimbus Sans L';-inkscape-font-specification:'Nimbus Sans L';text-align:center;text-anchor:middle;fill:#a10000;fill-opacity:1"
         id="path4205" />
      <path
         d="m 258.76353,198.93063 5.94665,17.36422 8.24602,0 -20.2979,-57.80144 -9.51464,0 -20.61505,57.80144 7.84958,0 6.10523,-17.36422 22.28011,0 z m -2.0615,-6.18452 -18.39497,0 9.51464,-26.32384 8.88033,26.32384 z"
         style="font-style:normal;font-variant:normal;font-weight:normal;font-stretch:normal;font-size:79.28866577px;font-family:'Nimbus Sans L';-inkscape-font-specification:'Nimbus Sans L';text-align:center;text-anchor:middle;fill:#a10000;fill-opacity:1"
         id="path4207" />
      <path
         d="m 304.98635,157.54194 c -16.57133,0 -27.83032,12.21046 -27.83032,30.28827 0,18.07782 11.25899,30.28827 27.90961,30.28827 6.9774,0 13.24121,-2.14079 17.91924,-6.10522 6.2638,-5.31234 9.99037,-14.27196 9.99037,-23.70731 0,-18.63284 -11.02112,-30.76401 -27.9889,-30.76401 z m 0,6.50167 c 12.52761,0 20.61505,9.51464 20.61505,24.10376 0,13.9548 -8.32531,23.46944 -20.53576,23.46944 -12.28974,0 -20.53576,-9.51464 -20.53576,-23.7866 0,-14.27196 8.24602,-23.7866 20.45647,-23.7866 z"
         style="font-style:normal;font-variant:normal;font-weight:normal;font-stretch:normal;font-size:79.28866577px;font-family:'Nimbus Sans L';-inkscape-font-specification:'Nimbus Sans L';text-align:center;text-anchor:middle;fill:#a10000;fill-opacity:1"
         id="path4209" />
      <path
         d="m 386.99809,158.49341 -6.9774,0 0,47.25604 -30.20898,-47.25604 -8.00816,0 0,57.80144 6.9774,0 0,-46.85961 29.89183,46.85961 8.32531,0 0,-57.80144 z"
         style="font-style:normal;font-variant:normal;font-weight:normal;font-stretch:normal;font-size:79.28866577px;font-family:'Nimbus Sans L';-inkscape-font-specification:'Nimbus Sans L';text-align:center;text-anchor:middle;fill:#a10000;fill-opacity:1"
         id="path4211" />
    </g>
    <g
       style="font-style:normal;font-weight:normal;font-size:19.82216644px;line-height:125%;font-family:sans-serif;letter-spacing:0px;word-spacing:0px;fill:#a10000;fill-opacity:1;stroke:none;stroke-width:1px;stroke-linecap:butt;stroke-linejoin:miter;stroke-opacity:1"
       id="text4165">
      <path
         d="m 174.44525,242.87356 q 0.7136,2.14079 1.73302,5.5049 1.12137,3.3641 2.34468,7.23792 1.22331,3.87382 2.44662,7.84958 1.22331,3.97576 2.34468,7.33987 1.22331,-3.77188 2.54857,-7.74764 1.32525,-4.0777 2.54856,-7.74764 1.22331,-3.77187 2.24274,-7.03403 1.01942,-3.26217 1.83496,-5.40296 l 10.39815,0 q 0.71359,8.25735 1.32525,16.10693 0.7136,7.84957 1.12137,15.59721 0.50971,7.64569 0.81554,15.49527 0.30583,7.74764 0.50971,15.90304 l -11.51951,0 0.61166,-49.03437 -7.74764,26.70895 -9.17483,0 -7.44181,-26.70895 0.50971,49.03437 -11.51951,0 q 0.30583,-7.74763 0.61166,-16.10692 0.40777,-8.35929 0.81554,-16.61664 0.40777,-8.25735 0.91748,-16.00499 0.61166,-7.74763 1.32526,-14.3739 l 10.39814,0 z"
         style="font-style:normal;font-variant:normal;font-weight:bold;font-stretch:normal;font-size:101.94257355px;font-family:'Ubuntu Mono';-inkscape-font-specification:'Ubuntu Mono Bold';text-align:center;text-anchor:middle;fill:#a10000;fill-opacity:1"
         id="path4214" />
      <path
         d="m 245.60116,305.97601 -2.95633,-14.57778 -16.82052,0 -2.8544,14.57778 -13.04865,0 q 4.48548,-18.65549 9.07289,-33.94687 4.58742,-15.39333 8.86901,-29.15558 l 13.6603,0 q 4.48547,13.86419 8.86901,29.4614 4.48547,15.49528 8.66511,33.64105 l -13.45642,0 z m -11.21368,-50.86934 q -1.01942,3.56799 -1.93691,6.83015 -0.81554,3.16022 -1.63108,6.32044 -0.7136,3.05828 -1.42719,6.2185 -0.61166,3.16022 -1.22332,6.52432 l 12.33506,0 q -0.61166,-3.3641 -1.22332,-6.52432 -0.61165,-3.16022 -1.42719,-6.2185 -0.7136,-3.16022 -1.63108,-6.32044 -0.81554,-3.26216 -1.83497,-6.83015 z"
         style="font-style:normal;font-variant:normal;font-weight:bold;font-stretch:normal;font-size:101.94257355px;font-family:'Ubuntu Mono';-inkscape-font-specification:'Ubuntu Mono Bold';text-align:center;text-anchor:middle;fill:#a10000;fill-opacity:1"
         id="path4216" />
      <path
         d="m 265.47997,305.97601 0,-10.39814 13.76224,0 0,-42.30617 -13.76224,0 0,-10.39814 40.06343,0 0,10.39814 -13.66031,0 0,42.30617 13.66031,0 0,10.39814 -40.06343,0 z"
         style="font-style:normal;font-variant:normal;font-weight:bold;font-stretch:normal;font-size:101.94257355px;font-family:'Ubuntu Mono';-inkscape-font-specification:'Ubuntu Mono Bold';text-align:center;text-anchor:middle;fill:#a10000;fill-opacity:1"
         id="path4218" />
      <path
         d="m 357.83994,305.97601 -39.65566,0 0,-63.10245 12.64088,0 0,52.70431 27.01478,0 0,10.39814 z"
         style="font-style:normal;font-variant:normal;font-weight:bold;font-stretch:normal;font-size:101.94257355px;font-family:'Ubuntu Mono';-inkscape-font-specification:'Ubuntu Mono Bold';text-align:center;text-anchor:middle;fill:#a10000;fill-opacity:1"
         id="path4220" />
    </g>
  </g>
  <rect
     width="500"
     height="500"
     id="rect21"
     x="-88.228683"
     y="-156.14421"
     style="fill-opacity:0" />
</svg>
