<?xml version="1.0" encoding="UTF-8" standalone="no"?>
<svg xmlns:rdf="http://www.w3.org/1999/02/22-rdf-syntax-ns#" xmlns="http://www.w3.org/2000/svg" xmlns:inkpad="http://taptrix.com/inkpad/svg_extensions" height="187.72" width="323.54" version="1.1" xmlns:cc="http://creativecommons.org/ns#" xmlns:xlink="http://www.w3.org/1999/xlink" viewBox="0 0 323.54263 187.71616" xmlns:dc="http://purl.org/dc/elements/1.1/">
 <defs>
  <linearGradient id="a" y2="241.64" gradientUnits="userSpaceOnUse" x2="439.92" y1="241.64" x1="78.301">
   <stop stop-color="#edd510" offset="0"/>
   <stop stop-color="#dbc718" offset=".26503"/>
  </linearGradient>
 </defs>
 <g inkpad:layerName="Layer 1" transform="matrix(.88285 0 0 .88285 -66.983 -119.48)">
  <path fill="url(#a)" d="m78.301 137.76h361.62v207.77h-361.62v-207.77z"/>
  <g stroke-linejoin="round" stroke-linecap="round" stroke-width="4.8552">
   <path d="m78.301 345.53 178.68-131.35 182.93 131.35" stroke="#c9c9c9" fill="none"/>
   <path d="m78.301 137.76 181.39 153.59 180.22-153.59" stroke="#c9c9c9" fill="#f9e82d"/>
   <path d="m78.299 137.76h361.62v207.77h-361.62v-207.77z" stroke="#ccc" fill="none"/>
  </g>
  <g fill="#a10000">
   <path d="m138.59 189.97h31.478v-6.5017h-31.478v-18.474h32.667v-6.5017h-40.041v57.801h41.468v-6.5017h-34.094v-19.822z"/>
   <path d="m190.76 158.49h-7.3738v57.801h35.918v-6.5017h-28.544v-51.3z"/>
   <path d="m258.76 198.93 5.9466 17.364h8.246l-20.298-57.801h-9.5146l-20.615 57.801h7.8496l6.1052-17.364h22.28zm-2.0615-6.1845h-18.395l9.5146-26.324 8.8803 26.324z"/>
   <path d="m304.99 157.54c-16.571 0-27.83 12.21-27.83 30.288s11.259 30.288 27.91 30.288c6.9774 0 13.241-2.1408 17.919-6.1052 6.2638-5.3123 9.9904-14.272 9.9904-23.707 0-18.633-11.021-30.764-27.989-30.764zm0 6.5017c12.528 0 20.615 9.5146 20.615 24.104 0 13.955-8.3253 23.469-20.536 23.469-12.29 0-20.536-9.5146-20.536-23.787s8.246-23.787 20.456-23.787z"/>
   <path d="m387 158.49h-6.9774v47.256l-30.209-47.256h-8.0082v57.801h6.9774v-46.86l29.892 46.86h8.3253v-57.801z"/>
  </g>
  <g fill="#a10000">
   <path d="m174.45 242.87q0.7136 2.1408 1.733 5.5049 1.1214 3.3641 2.3447 7.2379t2.4466 7.8496 2.3447 7.3399q1.2233-3.7719 2.5486-7.7476 1.3252-4.0777 2.5486-7.7476 1.2233-3.7719 2.2427-7.034 1.0194-3.2622 1.835-5.403h10.398q0.71359 8.2574 1.3252 16.107 0.7136 7.8496 1.1214 15.597 0.50971 7.6457 0.81554 15.495 0.30583 7.7476 0.50971 15.903h-11.52l0.61166-49.034-7.7476 26.709h-9.1748l-7.4418-26.709 0.50971 49.034h-11.52q0.30583-7.7476 0.61166-16.107 0.40777-8.3593 0.81554-16.617 0.40777-8.2574 0.91748-16.005 0.61166-7.7476 1.3253-14.374h10.398z"/>
   <path d="m245.6 305.98-2.9563-14.578h-16.821l-2.8544 14.578h-13.049q4.4855-18.655 9.0729-33.947 4.5874-15.393 8.869-29.156h13.66q4.4855 13.864 8.869 29.461 4.4855 15.495 8.6651 33.641h-13.456zm-11.214-50.869q-1.0194 3.568-1.9369 6.8302-0.81554 3.1602-1.6311 6.3204-0.7136 3.0583-1.4272 6.2185-0.61166 3.1602-1.2233 6.5243h12.335q-0.61166-3.3641-1.2233-6.5243-0.61165-3.1602-1.4272-6.2185-0.7136-3.1602-1.6311-6.3204-0.81554-3.2622-1.835-6.8302z"/>
   <path d="m265.48 305.98v-10.398h13.762v-42.306h-13.762v-10.398h40.063v10.398h-13.66v42.306h13.66v10.398h-40.063z"/>
   <path d="m357.84 305.98h-39.656v-63.102h12.641v52.704h27.015v10.398z"/>
  </g>
 </g>
 <rect fill-opacity="0" height="500" width="500" y="-156.14" x="-88.229"/>
</svg>
